<?xml version="1.0" encoding="UTF-8"?>
<svg version="1.1" xmlns="http://www.w3.org/2000/svg" width="300" height="300">
<path d="M0 0 C0.65726074 0.13422363 1.31452148 0.26844727 1.99169922 0.40673828 C28.52174488 5.90011852 52.0519068 17.49924213 71.90234375 36.05859375 C74.09761416 38.14680866 74.09761416 38.14680866 77.0625 40.375 C81.61227248 44.44075413 85.24409211 49.20681069 89 54 C89.82371094 55.04220703 89.82371094 55.04220703 90.6640625 56.10546875 C92.15626283 58.04054137 93.58800234 60.00569602 95 62 C95.52980469 62.73734375 96.05960937 63.4746875 96.60546875 64.234375 C105.86105877 77.87419187 112.36952034 93.94683749 116 110 C116.25821533 111.12760742 116.51643066 112.25521484 116.7824707 113.41699219 C119.03891673 123.89100422 119.51814713 134.05984902 119.4375 144.75 C119.43512329 145.58183807 119.43274658 146.41367615 119.43029785 147.27072144 C119.37384857 159.9082274 118.53743705 171.80539859 115 184 C114.69964844 185.17046875 114.39929688 186.3409375 114.08984375 187.546875 C108.92863811 206.22552397 98.38415712 222.55575887 87 238 C86.44828125 238.7940625 85.8965625 239.588125 85.328125 240.40625 C84.88984375 240.9321875 84.4515625 241.458125 84 242 C83.34 242 82.68 242 82 242 C81.731875 242.598125 81.46375 243.19625 81.1875 243.8125 C80.00082594 245.99847854 78.90400887 247.41332594 77 249 C76.34 249 75.68 249 75 249 C74.7421875 249.59296875 74.484375 250.1859375 74.21875 250.796875 C72.90230105 253.17660965 71.57419218 254.50978792 69.5 256.25 C68.8915625 256.77078125 68.283125 257.2915625 67.65625 257.828125 C66 259 66 259 64 259 C64 259.66 64 260.32 64 261 C61.84570712 262.6439852 59.7029062 264.14711462 57.4375 265.625 C56.76001709 266.0694043 56.08253418 266.51380859 55.38452148 266.97167969 C21.40228608 288.93221299 -18.63488059 296.354436 -58.48095703 288.54345703 C-72.26151856 285.57044579 -84.70125431 280.8376044 -97 274 C-97.63728027 273.65114746 -98.27456055 273.30229492 -98.93115234 272.94287109 C-112.33393494 265.58681457 -112.33393494 265.58681457 -118 261 C-118 260.34 -118 259.68 -118 259 C-118.58265625 258.731875 -119.1653125 258.46375 -119.765625 258.1875 C-122.02786601 256.98519009 -123.80576318 255.66174087 -125.75 254 C-126.36359375 253.484375 -126.9771875 252.96875 -127.609375 252.4375 C-129 251 -129 251 -129 249 C-129.598125 248.731875 -130.19625 248.46375 -130.8125 248.1875 C-132.99847854 247.00082594 -134.41332594 245.90400887 -136 244 C-136 243.34 -136 242.68 -136 242 C-136.66 242 -137.32 242 -138 242 C-139.80111504 239.80773371 -141.47490955 237.61509452 -143.125 235.3125 C-143.61637451 234.63203613 -144.10774902 233.95157227 -144.61401367 233.25048828 C-151.91089021 223.03890108 -158.09076616 212.58075676 -163 201 C-163.44214844 199.97390625 -163.88429687 198.9478125 -164.33984375 197.890625 C-169.82897621 184.47645327 -173.12034395 170.07555099 -173.203125 155.56640625 C-173.20882507 154.77080795 -173.21452515 153.97520966 -173.22039795 153.15550232 C-173.22980066 151.47550769 -173.236363 149.795495 -173.24023438 148.11547852 C-173.24985378 145.60072639 -173.28088587 143.08682355 -173.3125 140.57226562 C-173.38198666 130.0070406 -172.41324798 120.30208768 -170 110 C-169.70174316 108.72298218 -169.70174316 108.72298218 -169.39746094 107.42016602 C-165.81901569 93.1956838 -160.02663701 80.15633448 -152.6875 67.5 C-152.25477783 66.75105469 -151.82205566 66.00210938 -151.3762207 65.23046875 C-150.3117363 63.44912948 -149.16333333 61.7184156 -148 60 C-147.34 60 -146.68 60 -146 60 C-145.76023438 59.278125 -145.52046875 58.55625 -145.2734375 57.8125 C-143.81658551 54.59491279 -142.04049184 52.56796475 -139.625 50 C-137.29798101 47.50954489 -135.03706923 45.0465795 -132.9140625 42.37890625 C-115.36206287 20.56427814 -85.3566063 7.48960859 -59 1 C-58.27635254 0.81888672 -57.55270508 0.63777344 -56.80712891 0.45117188 C-38.87597898 -3.81421468 -17.99925935 -3.79722158 0 0 Z " fill="#3A3A3A" transform="translate(177,3)"/>
<path d="M0 0 C2.08752776 1.04011228 4.16097178 2.10877716 6.22265625 3.19921875 C8.04062015 4.11844081 9.85862613 5.03758055 11.67732239 5.95535278 C13.822399 7.04286417 15.96098348 8.14253707 18.09960938 9.24267578 C23.79727737 12.16160486 29.53311366 15.00268916 35.2696209 17.84433556 C40.83949422 20.6040363 46.40591785 23.3707014 51.97265625 26.13671875 C52.59035259 26.44352695 53.20804893 26.75033516 53.84446335 27.06644058 C57.99845891 29.13038479 62.14845084 31.20221641 66.296875 33.27734375 C67.37580017 33.81326645 68.45472534 34.34918915 69.56634521 34.90135193 C70.55467346 35.3970015 71.54300171 35.89265106 72.5612793 36.40332031 C73.42867233 36.83630432 74.29606537 37.26928833 75.18974304 37.71539307 C77.28515625 38.88671875 77.28515625 38.88671875 79.28515625 40.88671875 C79.41015625 43.19921875 79.41015625 43.19921875 78.28515625 45.88671875 C70.71240882 51.23122349 62.17707568 55.06707941 53.89453125 59.1796875 C52.30111442 59.97452731 50.70787594 60.76972474 49.11480713 61.56526184 C44.94247908 63.64762894 40.76777185 65.72518093 36.5925293 67.80169678 C32.34018195 69.91762016 28.09010801 72.03809945 23.83984375 74.15820312 C16.98247159 77.57811927 10.12370911 80.99522739 3.26318359 84.40881348 C-0.31168553 86.18206572 -0.31168553 86.18206572 -3.8321228 88.05992126 C-8.89231413 90.28210585 -14.59914039 89.94355917 -19.7702713 88.18952179 C-25.59754893 85.80478003 -31.16437585 82.87570327 -36.75390625 79.98828125 C-38.56942304 79.0718559 -40.38595991 78.15744888 -42.20346069 77.2449646 C-46.95818044 74.85046446 -51.69745082 72.42681788 -56.43432617 69.99725342 C-60.31495642 68.01316259 -64.20607762 66.05019413 -68.09790993 64.08819008 C-72.73670861 61.74921963 -77.37105183 59.40150033 -82.00390625 57.05078125 C-83.3306027 56.37779432 -83.3306027 56.37779432 -84.6841011 55.6912117 C-87.17544022 54.42461198 -89.66370354 53.15219417 -92.15087891 51.87744141 C-92.89159637 51.50125168 -93.63231384 51.12506195 -94.39547729 50.73747253 C-97.1613913 49.31337451 -99.50052318 48.10103932 -101.71484375 45.88671875 C-101.83984375 42.76171875 -101.83984375 42.76171875 -101.71484375 39.88671875 C-86.8127803 31.97157973 -71.84156974 24.18837625 -56.79603958 16.54952621 C-53.18830844 14.71708236 -49.58641284 12.87469733 -45.99560547 11.00927734 C-42.4579922 9.17190603 -38.90795273 7.36096741 -35.34806442 5.56715775 C-34.01439636 4.88970745 -32.68520534 4.20335532 -31.36113358 3.50733566 C-20.87880891 -1.9912026 -11.37556254 -4.74803096 0 0 Z " fill="#FDFDFD" transform="translate(161.71484375,46.11328125)"/>
<path d="M0 0 C2.08721052 2.08721052 1.17849588 6.6436949 1.19287109 9.52368164 C1.20513733 10.86524826 1.20513733 10.86524826 1.21765137 12.23391724 C1.24256747 15.20932335 1.25904141 18.18468139 1.2734375 21.16015625 C1.27876118 22.17528227 1.28408485 23.19040829 1.28956985 24.2362957 C1.31633445 29.61414715 1.33569461 34.99197516 1.35009766 40.36987305 C1.36671063 45.9194159 1.41145099 51.46836085 1.4624691 57.01767826 C1.49617899 61.28745685 1.50767953 65.55709462 1.51332474 69.82699394 C1.52003195 71.87187684 1.53524015 73.91675064 1.55921555 75.96150398 C1.59093589 78.83167705 1.59089288 81.70025334 1.58349609 84.57055664 C1.59990143 85.40984207 1.61630676 86.2491275 1.63320923 87.11384583 C1.57004502 93.12821034 -0.02474762 97.42162839 -4 102 C-6.84090021 104.08159515 -9.80596467 105.52399789 -13 107 C-14.15226074 107.55703613 -15.30452148 108.11407227 -16.49169922 108.68798828 C-20.62437259 110.68049015 -24.78003479 112.62239931 -28.9375 114.5625 C-30.44857267 115.27032353 -31.95955801 115.97833349 -33.47045898 116.68652344 C-45.75269261 122.43818202 -58.04316501 128.17627999 -70.38330078 133.80273438 C-72.11577373 134.59542399 -73.8434488 135.39869207 -75.56591797 136.21289062 C-76.35756348 136.58091797 -77.14920898 136.94894531 -77.96484375 137.328125 C-78.99339478 137.81394043 -78.99339478 137.81394043 -80.04272461 138.30957031 C-82 139 -82 139 -86 139 C-88.61894836 135.07157747 -88.31036864 131.70297027 -88.32226562 127.14160156 C-88.33219543 126.2355719 -88.34212524 125.32954224 -88.35235596 124.39605713 C-88.38160044 121.39421564 -88.39520406 118.39258563 -88.40625 115.390625 C-88.41775415 113.30417881 -88.4292696 111.21773269 -88.4407959 109.13128662 C-88.46181711 104.75320449 -88.47350116 100.37519582 -88.48046875 95.99707031 C-88.49142982 90.39352625 -88.5394639 84.79095628 -88.59641266 79.18771744 C-88.63370953 74.87592764 -88.64407894 70.56437125 -88.6471405 66.25243378 C-88.65318632 64.18717888 -88.66921939 62.12192775 -88.69551086 60.05683136 C-88.72972497 57.16246609 -88.72585263 54.27046346 -88.71289062 51.37597656 C-88.73132019 50.52688721 -88.74974976 49.67779785 -88.76873779 48.80297852 C-88.69092319 43.24043075 -87.37627453 40.3888245 -83.5269289 36.36355972 C-81.51764151 34.56925001 -79.55272165 33.34414871 -77.10546875 32.21875 C-75.6968457 31.55601074 -75.6968457 31.55601074 -74.25976562 30.87988281 C-73.24591797 30.42452148 -72.23207031 29.96916016 -71.1875 29.5 C-70.11306641 29.00081055 -69.03863281 28.50162109 -67.93164062 27.98730469 C-64.9450124 26.60554545 -61.95145593 25.24052469 -58.95306396 23.88452148 C-56.92610284 22.96653278 -54.90148428 22.04354487 -52.87744141 21.11914062 C-47.16283541 18.50933967 -41.4480512 15.90019534 -35.7199707 13.32006836 C-29.904562 10.69924372 -24.09445963 8.07988045 -18.3671875 5.26953125 C-17.58472656 4.88700195 -16.80226563 4.50447266 -15.99609375 4.11035156 C-14.65147155 3.44608838 -13.31213954 2.77091507 -11.98046875 2.08105469 C-7.85958073 0.04607684 -4.56884653 -0.37029305 0 0 Z " fill="#FEFEFE" transform="translate(245,113)"/>
<path d="M0 0 C3.10382278 1.12850911 6.09604848 2.46687121 9.09228516 3.84985352 C10.11147789 4.31563057 10.11147789 4.31563057 11.15126038 4.79081726 C13.39111783 5.81594018 15.62849505 6.84634895 17.86572266 7.87719727 C19.42533383 8.59310586 20.98498609 9.30892494 22.54467773 10.0246582 C33.69785696 15.15048176 44.82118552 20.33972217 55.92822266 25.56469727 C57.00429779 26.07070969 57.00429779 26.07070969 58.10211182 26.58694458 C61.39778165 28.13797922 64.69056991 29.69442884 67.9765625 31.26586914 C69.90384476 32.1803552 71.83894002 33.07914578 73.79003906 33.94165039 C78.33704382 36.00586975 81.77669704 38.42996019 84.24072266 42.81469727 C84.93603357 45.94809193 84.90509476 48.98532171 84.85595703 52.18481445 C84.86150604 53.10906723 84.86705505 54.03332001 84.87277222 54.98558044 C84.88454485 58.02811167 84.86032449 61.06914619 84.83447266 64.11157227 C84.83276143 66.22812838 84.83282736 68.34468661 84.83459473 70.46124268 C84.83294305 74.88965212 84.81426673 79.31755437 84.78271484 83.74584961 C84.74294084 89.43138981 84.73868172 95.11626884 84.74617767 100.80192184 C84.74924097 105.16843765 84.73715132 109.53480382 84.720047 113.90128326 C84.71300177 115.99851799 84.7098943 118.09576966 84.71073914 120.19301605 C84.70894888 123.11637813 84.68763667 126.03893475 84.66064453 128.9621582 C84.66357513 129.83386154 84.66650574 130.70556488 84.66952515 131.60368347 C84.63513184 134.00799561 84.63513184 134.00799561 84.24072266 137.81469727 C81.24072266 139.81469727 81.24072266 139.81469727 78.53686523 139.65893555 C74.61158963 138.65355794 71.12301982 137.08173618 67.50244141 135.30688477 C66.75630585 134.94928574 66.01017029 134.59168671 65.24142456 134.22325134 C62.80036285 133.0521817 60.36428548 131.87112576 57.92822266 130.68969727 C54.50595472 129.04053949 51.08100554 127.39703258 47.65478516 125.75610352 C46.78819778 125.34057724 45.92161041 124.92505096 45.02876282 124.49693298 C39.27138186 121.74871224 33.47661698 119.10290727 27.63916016 116.52954102 C26.88570816 116.19565369 26.13225616 115.86176636 25.35597229 115.51776123 C21.03754971 113.60555988 21.03754971 113.60555988 16.70443726 111.72698975 C0.2676049 104.67529548 0.2676049 104.67529548 -3.81802368 96.76477051 C-5.10120391 92.74303248 -5.04632607 89.03040797 -5.03393555 84.83349609 C-5.03904648 83.93865005 -5.04415741 83.04380402 -5.04942322 82.12184143 C-5.06329499 79.17173532 -5.062365 76.2218633 -5.06005859 73.27172852 C-5.06394535 71.22100233 -5.06827997 69.17027695 -5.07304382 67.11955261 C-5.08049972 62.8265827 -5.0802182 58.53369505 -5.07495117 54.24072266 C-5.06914127 48.72896206 -5.08612725 43.21753583 -5.10929585 37.70583057 C-5.12399321 33.47403483 -5.12491064 29.24232051 -5.12178612 25.01050377 C-5.12230082 22.97744774 -5.12756623 20.94438732 -5.13759804 18.91135597 C-5.14987495 16.076584 -5.14322499 13.24247544 -5.1315918 10.40771484 C-5.1430574 9.13988159 -5.1430574 9.13988159 -5.15475464 7.84643555 C-5.13349915 5.51423645 -5.13349915 5.51423645 -4.75927734 1.81469727 C-1.75927734 -0.18530273 -1.75927734 -0.18530273 0 0 Z " fill="#FEFEFE" transform="translate(58.75927734375,112.185302734375)"/>
<path d="M0 0 C0.66 0.33 1.32 0.66 2 1 C-2.19877293 6.02669999 -6.64890058 10.78066345 -11.25 15.4375 C-11.76916992 15.96956055 -12.28833984 16.50162109 -12.82324219 17.04980469 C-15.19822524 19.43095252 -16.76396847 20.92132282 -20 22 C-17.25817212 15.51931592 -12.17044682 11.13958536 -6.9375 6.6796875 C-4.49654333 4.56353555 -2.24804455 2.31829594 0 0 Z " fill="#888888" transform="translate(56,34)"/>
</svg>
